<svg id="visual" viewBox="0 0 900 600" width="900" height="600" xmlns="http://www.w3.org/2000/svg" xmlns:xlink="http://www.w3.org/1999/xlink" version="1.1"><rect x="0" y="0" width="900" height="600" fill="#002233"></rect><path d="M0 520L13.7 519.2C27.3 518.3 54.7 516.7 82 515.3C109.3 514 136.7 513 163.8 518.2C191 523.3 218 534.7 245.2 542.3C272.3 550 299.7 554 327 549.8C354.3 545.7 381.7 533.3 409 526.2C436.3 519 463.7 517 491 516.2C518.3 515.3 545.7 515.7 573 522.7C600.3 529.7 627.7 543.3 654.8 550.2C682 557 709 557 736.2 549.5C763.3 542 790.7 527 818 526C845.3 525 872.7 538 886.3 544.5L900 551L900 601L886.3 601C872.7 601 845.3 601 818 601C790.7 601 763.3 601 736.2 601C709 601 682 601 654.8 601C627.7 601 600.3 601 573 601C545.7 601 518.3 601 491 601C463.7 601 436.3 601 409 601C381.7 601 354.3 601 327 601C299.7 601 272.3 601 245.2 601C218 601 191 601 163.8 601C136.7 601 109.3 601 82 601C54.7 601 27.3 601 13.7 601L0 601Z" fill="#0066FF" stroke-linecap="round" stroke-linejoin="miter"></path></svg>